<svg xmlns:xlink="http://www.w3.org/1999/xlink" xmlns="http://www.w3.org/2000/svg" id="chart-65226a36-7998-4613-9268-263d8c25d702" class="pygal-chart" viewBox="0 0 800 600"><!--Generated with pygal 1.4.6 ©Kozea 2011-2014 on 2014-09-12--><!--http://pygal.org--><!--http://github.com/Kozea/pygal--><defs><style type="text/css">#chart-65226a36-7998-4613-9268-263d8c25d702 .title{font-family:monospace;font-size:16px}#chart-65226a36-7998-4613-9268-263d8c25d702 .legends .legend text{font-family:monospace;font-size:14px}#chart-65226a36-7998-4613-9268-263d8c25d702 .axis text{font-family:monospace;font-size:10px}#chart-65226a36-7998-4613-9268-263d8c25d702 .axis text.major{font-family:monospace;font-size:10px}#chart-65226a36-7998-4613-9268-263d8c25d702 .series text{font-family:monospace;font-size:8px}#chart-65226a36-7998-4613-9268-263d8c25d702 .tooltip text{font-family:monospace;font-size:16px}#chart-65226a36-7998-4613-9268-263d8c25d702 text.no_data{font-size:64px}
#chart-65226a36-7998-4613-9268-263d8c25d702{background-color:black}#chart-65226a36-7998-4613-9268-263d8c25d702 path,#chart-65226a36-7998-4613-9268-263d8c25d702 line,#chart-65226a36-7998-4613-9268-263d8c25d702 rect,#chart-65226a36-7998-4613-9268-263d8c25d702 circle{-webkit-transition:1s ease-out;-moz-transition:1s ease-out;transition:1s ease-out}#chart-65226a36-7998-4613-9268-263d8c25d702 .graph &gt; .background{fill:black}#chart-65226a36-7998-4613-9268-263d8c25d702 .plot &gt; .background{fill:#111}#chart-65226a36-7998-4613-9268-263d8c25d702 .graph{fill:#999}#chart-65226a36-7998-4613-9268-263d8c25d702 text.no_data{fill:#eee}#chart-65226a36-7998-4613-9268-263d8c25d702 .title{fill:#eee}#chart-65226a36-7998-4613-9268-263d8c25d702 .legends .legend text{fill:#999}#chart-65226a36-7998-4613-9268-263d8c25d702 .legends .legend:hover text{fill:#eee}#chart-65226a36-7998-4613-9268-263d8c25d702 .axis .line{stroke:#eee}#chart-65226a36-7998-4613-9268-263d8c25d702 .axis .guide.line{stroke:#555}#chart-65226a36-7998-4613-9268-263d8c25d702 .axis .major.line{stroke:#999}#chart-65226a36-7998-4613-9268-263d8c25d702 .axis text.major{stroke:#eee;fill:#eee}#chart-65226a36-7998-4613-9268-263d8c25d702 .axis.y .guides:hover .guide.line,#chart-65226a36-7998-4613-9268-263d8c25d702 .line-graph .axis.x .guides:hover .guide.line,#chart-65226a36-7998-4613-9268-263d8c25d702 .stackedline-graph .axis.x .guides:hover .guide.line,#chart-65226a36-7998-4613-9268-263d8c25d702 .xy-graph .axis.x .guides:hover .guide.line{stroke:#eee}#chart-65226a36-7998-4613-9268-263d8c25d702 .axis .guides:hover text{fill:#eee}#chart-65226a36-7998-4613-9268-263d8c25d702 .reactive{fill-opacity:.1}#chart-65226a36-7998-4613-9268-263d8c25d702 .reactive.active,#chart-65226a36-7998-4613-9268-263d8c25d702 .active .reactive{fill-opacity:.75}#chart-65226a36-7998-4613-9268-263d8c25d702 .series text{fill:#eee}#chart-65226a36-7998-4613-9268-263d8c25d702 .tooltip rect{fill:#111;stroke:#eee}#chart-65226a36-7998-4613-9268-263d8c25d702 .tooltip text{fill:#eee}#chart-65226a36-7998-4613-9268-263d8c25d702 .map-element{fill:#999;stroke:#555 !important;opacity:.9;stroke-width:3;-webkit-transition:250ms;-moz-transition:250ms;-o-transition:250ms;transition:250ms}#chart-65226a36-7998-4613-9268-263d8c25d702 .map-element:hover{opacity:1;stroke-width:10}#chart-65226a36-7998-4613-9268-263d8c25d702 .color-0,#chart-65226a36-7998-4613-9268-263d8c25d702 .color-0 a:visited{stroke:#ff5995;fill:#ff5995}#chart-65226a36-7998-4613-9268-263d8c25d702 .color-1,#chart-65226a36-7998-4613-9268-263d8c25d702 .color-1 a:visited{stroke:#b6e354;fill:#b6e354}#chart-65226a36-7998-4613-9268-263d8c25d702 .color-2,#chart-65226a36-7998-4613-9268-263d8c25d702 .color-2 a:visited{stroke:#feed6c;fill:#feed6c}#chart-65226a36-7998-4613-9268-263d8c25d702 .color-3,#chart-65226a36-7998-4613-9268-263d8c25d702 .color-3 a:visited{stroke:#8cedff;fill:#8cedff}#chart-65226a36-7998-4613-9268-263d8c25d702 .color-4,#chart-65226a36-7998-4613-9268-263d8c25d702 .color-4 a:visited{stroke:#9e6ffe;fill:#9e6ffe}#chart-65226a36-7998-4613-9268-263d8c25d702 .color-5,#chart-65226a36-7998-4613-9268-263d8c25d702 .color-5 a:visited{stroke:#899ca1;fill:#899ca1}#chart-65226a36-7998-4613-9268-263d8c25d702 .color-6,#chart-65226a36-7998-4613-9268-263d8c25d702 .color-6 a:visited{stroke:#f8f8f2;fill:#f8f8f2}#chart-65226a36-7998-4613-9268-263d8c25d702 .color-7,#chart-65226a36-7998-4613-9268-263d8c25d702 .color-7 a:visited{stroke:#bf4646;fill:#bf4646}#chart-65226a36-7998-4613-9268-263d8c25d702 .color-8,#chart-65226a36-7998-4613-9268-263d8c25d702 .color-8 a:visited{stroke:#516083;fill:#516083}#chart-65226a36-7998-4613-9268-263d8c25d702 .color-9,#chart-65226a36-7998-4613-9268-263d8c25d702 .color-9 a:visited{stroke:#f92672;fill:#f92672}#chart-65226a36-7998-4613-9268-263d8c25d702 .color-10,#chart-65226a36-7998-4613-9268-263d8c25d702 .color-10 a:visited{stroke:#82b414;fill:#82b414}#chart-65226a36-7998-4613-9268-263d8c25d702 .color-11,#chart-65226a36-7998-4613-9268-263d8c25d702 .color-11 a:visited{stroke:#fd971f;fill:#fd971f}#chart-65226a36-7998-4613-9268-263d8c25d702 .color-12,#chart-65226a36-7998-4613-9268-263d8c25d702 .color-12 a:visited{stroke:#56c2d6;fill:#56c2d6}#chart-65226a36-7998-4613-9268-263d8c25d702 .color-13,#chart-65226a36-7998-4613-9268-263d8c25d702 .color-13 a:visited{stroke:#808384;fill:#808384}#chart-65226a36-7998-4613-9268-263d8c25d702 .color-14,#chart-65226a36-7998-4613-9268-263d8c25d702 .color-14 a:visited{stroke:#8c54fe;fill:#8c54fe}#chart-65226a36-7998-4613-9268-263d8c25d702 .color-15,#chart-65226a36-7998-4613-9268-263d8c25d702 .color-15 a:visited{stroke:#465457;fill:#465457}
#chart-65226a36-7998-4613-9268-263d8c25d702 text.no_data{text-anchor:middle}#chart-65226a36-7998-4613-9268-263d8c25d702 .guide.line{fill-opacity:0}#chart-65226a36-7998-4613-9268-263d8c25d702 .centered{text-anchor:middle}#chart-65226a36-7998-4613-9268-263d8c25d702 .title{text-anchor:middle}#chart-65226a36-7998-4613-9268-263d8c25d702 .legends .legend text{fill-opacity:1}#chart-65226a36-7998-4613-9268-263d8c25d702 .axis.x text{text-anchor:middle}#chart-65226a36-7998-4613-9268-263d8c25d702 .axis.x:not(.web) text[transform]{text-anchor:start}#chart-65226a36-7998-4613-9268-263d8c25d702 .axis.y text{text-anchor:end}#chart-65226a36-7998-4613-9268-263d8c25d702 .axis.y2 text{text-anchor:start}#chart-65226a36-7998-4613-9268-263d8c25d702 .axis.y .logarithmic text:not(.major),#chart-65226a36-7998-4613-9268-263d8c25d702 .axis.y2 .logarithmic text:not(.major){font-size:50%}#chart-65226a36-7998-4613-9268-263d8c25d702 .axis .guide.line{stroke-dasharray:4,4}#chart-65226a36-7998-4613-9268-263d8c25d702 .axis .major.guide.line{stroke-dasharray:6,6}#chart-65226a36-7998-4613-9268-263d8c25d702 .axis text.major{stroke-width:0.5px}#chart-65226a36-7998-4613-9268-263d8c25d702 .horizontal .axis.y .guide.line,#chart-65226a36-7998-4613-9268-263d8c25d702 .horizontal .axis.y2 .guide.line,#chart-65226a36-7998-4613-9268-263d8c25d702 .vertical .axis.x .guide.line{opacity:0}#chart-65226a36-7998-4613-9268-263d8c25d702 .horizontal .axis.always_show .guide.line,#chart-65226a36-7998-4613-9268-263d8c25d702 .vertical .axis.always_show .guide.line{opacity:1 !important}#chart-65226a36-7998-4613-9268-263d8c25d702 .axis.y .guides:hover .guide.line,#chart-65226a36-7998-4613-9268-263d8c25d702 .axis.y2 .guides:hover .guide.line,#chart-65226a36-7998-4613-9268-263d8c25d702 .axis.x .guides:hover .guide.line{opacity:1}#chart-65226a36-7998-4613-9268-263d8c25d702 .axis .guides:hover text{opacity:1}#chart-65226a36-7998-4613-9268-263d8c25d702 .nofill{fill:none}#chart-65226a36-7998-4613-9268-263d8c25d702 .subtle-fill{fill-opacity:.2}#chart-65226a36-7998-4613-9268-263d8c25d702 .dot{stroke-width:1px;fill-opacity:1}#chart-65226a36-7998-4613-9268-263d8c25d702 .dot.active{stroke-width:5px}#chart-65226a36-7998-4613-9268-263d8c25d702 .series text{stroke:none}#chart-65226a36-7998-4613-9268-263d8c25d702 .series text.active{opacity:1}#chart-65226a36-7998-4613-9268-263d8c25d702 .tooltip rect{fill-opacity:0.8}#chart-65226a36-7998-4613-9268-263d8c25d702 .tooltip text{fill-opacity:1}#chart-65226a36-7998-4613-9268-263d8c25d702 .tooltip text tspan.label{fill-opacity:.8}</style></defs><title>Pygal - Python charting library</title><g class="graph line-graph vertical"><rect class="background" height="600" width="800" x="0" y="0"></rect><g class="plot" transform="translate(112, 46)"><rect class="background" height="534" width="668.0" x="0" y="0"></rect><g class="axis y"><path class="line" d="M0.000000 534.000000 h668.000000"></path><g class="guides"><path class="guide line" d="M0.000000 516.017582 h668.000000"></path><text class="" x="-5" y="519.5175821779412">0.4</text></g><g class="guides"><path class="guide line" d="M0.000000 487.920452 h668.000000"></path><text class="" x="-5" y="491.4204515441239">0.6</text></g><g class="guides"><path class="guide line" d="M0.000000 459.823321 h668.000000"></path><text class="" x="-5" y="463.3233209103067">0.8</text></g><g class="guides"><path class="major guide line" d="M0.000000 431.726190 h668.000000"></path><text class="major" x="-5" y="435.22619027648943">1.0</text></g><g class="guides"><path class="guide line" d="M0.000000 403.629060 h668.000000"></path><text class="" x="-5" y="407.12905964267225">1.2</text></g><g class="guides"><path class="guide line" d="M0.000000 375.531929 h668.000000"></path><text class="" x="-5" y="379.03192900885495">1.4</text></g><g class="guides"><path class="guide line" d="M0.000000 347.434798 h668.000000"></path><text class="" x="-5" y="350.9347983750377">1.6</text></g><g class="guides"><path class="guide line" d="M0.000000 319.337668 h668.000000"></path><text class="" x="-5" y="322.83766774122046">1.8</text></g><g class="guides"><path class="major guide line" d="M0.000000 291.240537 h668.000000"></path><text class="major" x="-5" y="294.74053710740316">2.0</text></g><g class="guides"><path class="guide line" d="M0.000000 263.143406 h668.000000"></path><text class="" x="-5" y="266.64340647358597">2.2</text></g><g class="guides"><path class="guide line" d="M0.000000 235.046276 h668.000000"></path><text class="" x="-5" y="238.54627583976873">2.4</text></g><g class="guides"><path class="guide line" d="M0.000000 206.949145 h668.000000"></path><text class="" x="-5" y="210.44914520595142">2.6</text></g><g class="guides"><path class="guide line" d="M0.000000 178.852015 h668.000000"></path><text class="" x="-5" y="182.35201457213424">2.8</text></g><g class="guides"><path class="major guide line" d="M0.000000 150.754884 h668.000000"></path><text class="major" x="-5" y="154.25488393831694">3.0</text></g><g class="guides"><path class="guide line" d="M0.000000 122.657753 h668.000000"></path><text class="" x="-5" y="126.15775330449969">3.2</text></g><g class="guides"><path class="guide line" d="M0.000000 94.560623 h668.000000"></path><text class="" x="-5" y="98.0606226706825">3.4</text></g><g class="guides"><path class="guide line" d="M0.000000 66.463492 h668.000000"></path><text class="" x="-5" y="69.9634920368652">3.6</text></g><g class="guides"><path class="guide line" d="M0.000000 38.366361 h668.000000"></path><text class="" x="-5" y="41.86636140304802">3.8</text></g><g class="guides"><path class="major guide line" d="M0.000000 10.269231 h668.000000"></path><text class="major" x="-5" y="13.769230769230717">4.0</text></g></g><g class="series serie-0 color-0"><path class="line reactive" d="M12.846154 534.000000 L12.846154 431.726190 13.488462 431.314766 14.130769 430.903326 14.773077 430.491858 15.415385 430.080347 16.057692 429.668778 16.700000 429.257136 17.342308 428.845408 17.984615 428.433579 18.626923 428.021634 19.269231 427.609559 19.911538 427.197340 20.553846 426.784961 21.196154 426.372410 21.838462 425.959670 22.480769 425.546728 23.123077 425.133569 23.765385 424.720180 24.407692 424.306544 25.050000 423.892648 25.692308 423.478478 26.334615 423.064019 26.976923 422.649256 27.619231 422.234176 28.261538 421.818763 28.903846 421.403003 29.546154 420.986883 30.188462 420.570386 30.830769 420.153499 31.473077 419.736208 32.115385 419.318497 32.757692 418.900353 33.400000 418.481762 34.042308 418.062707 34.684615 417.643176 35.326923 417.223154 35.969231 416.802626 36.611538 416.381577 37.253846 415.959994 37.896154 415.537862 38.538462 415.115167 39.180769 414.691893 39.823077 414.268027 40.465385 413.843554 41.107692 413.418460 41.750000 412.992729 42.392308 412.566349 43.034615 412.139304 43.676923 411.711580 44.319231 411.283162 44.961538 410.854036 45.603846 410.424188 46.246154 409.993602 46.888462 409.562266 47.530769 409.130163 48.173077 408.697280 48.815385 408.263603 49.457692 407.829116 50.100000 407.393805 50.742308 406.957657 51.384615 406.520656 52.026923 406.082788 52.669231 405.644038 53.311538 405.204393 53.953846 404.763837 54.596154 404.322356 55.238462 403.879937 55.880769 403.436563 56.523077 402.992221 57.165385 402.546897 57.807692 402.100576 58.450000 401.653243 59.092308 401.204884 59.734615 400.755485 60.376923 400.305031 61.019231 399.853508 61.661538 399.400901 62.303846 398.947195 62.946154 398.492378 63.588462 398.036433 64.230769 397.579346 64.873077 397.121104 65.515385 396.661691 66.157692 396.201093 66.800000 395.739295 67.442308 395.276284 68.084615 394.812045 68.726923 394.346563 69.369231 393.879824 70.011538 393.411813 70.653846 392.942517 71.296154 392.471919 71.938462 392.000007 72.580769 391.526766 73.223077 391.052180 73.865385 390.576237 74.507692 390.098920 75.150000 389.620216 75.792308 389.140111 76.434615 388.658590 77.076923 388.175638 77.719231 387.691241 78.361538 387.205384 79.003846 386.718054 79.646154 386.229236 80.288462 385.738914 80.930769 385.247075 81.573077 384.753705 82.215385 384.258789 82.857692 383.762312 83.500000 383.264259 84.142308 382.764618 84.784615 382.263372 85.426923 381.760508 86.069231 381.256011 86.711538 380.749867 87.353846 380.242061 87.996154 379.732579 88.638462 379.221407 89.280769 378.708529 89.923077 378.193931 90.565385 377.677600 91.207692 377.159520 91.850000 376.639678 92.492308 376.118058 93.134615 375.594646 93.776923 375.069428 94.419231 374.542389 95.061538 374.013515 95.703846 373.482792 96.346154 372.950204 96.988462 372.415738 97.630769 371.879379 98.273077 371.341113 98.915385 370.800925 99.557692 370.258800 100.200000 369.714725 100.842308 369.168684 101.484615 368.620664 102.126923 368.070650 102.769231 367.518627 103.411538 366.964582 104.053846 366.408498 104.696154 365.850363 105.338462 365.290162 105.980769 364.727880 106.623077 364.163502 107.265385 363.597015 107.907692 363.028404 108.550000 362.457654 109.192308 361.884751 109.834615 361.309681 110.476923 360.732429 111.119231 360.152980 111.761538 359.571320 112.403846 358.987435 113.046154 358.401311 113.688462 357.812932 114.330769 357.222285 114.973077 356.629354 115.615385 356.034126 116.257692 355.436586 116.900000 354.836719 117.542308 354.234512 118.184615 353.629949 118.826923 353.023017 119.469231 352.413700 120.111538 351.801984 120.753846 351.187856 121.396154 350.571300 122.038462 349.952301 122.680769 349.330847 123.323077 348.706921 123.965385 348.080510 124.607692 347.451599 125.250000 346.820174 125.892308 346.186220 126.534615 345.549723 127.176923 344.910668 127.819231 344.269041 128.461538 343.624827 129.103846 342.978013 129.746154 342.328583 130.388462 341.676523 131.030769 341.021819 131.673077 340.364456 132.315385 339.704420 132.957692 339.041697 133.600000 338.376271 134.242308 337.708128 134.884615 337.037254 135.526923 336.363635 136.169231 335.687256 136.811538 335.008103 137.453846 334.326161 138.096154 333.641415 138.738462 332.953852 139.380769 332.263456 140.023077 331.570214 140.665385 330.874111 141.307692 330.175132 141.950000 329.473264 142.592308 328.768491 143.234615 328.060798 143.876923 327.350173 144.519231 326.636600 145.161538 325.920064 145.803846 325.200552 146.446154 324.478049 147.088462 323.752540 147.730769 323.024011 148.373077 322.292448 149.015385 321.557836 149.657692 320.820160 150.300000 320.079406 150.942308 319.335560 151.584615 318.588608 152.226923 317.838534 152.869231 317.085325 153.511538 316.328965 154.153846 315.569441 154.796154 314.806738 155.438462 314.040842 156.080769 313.271737 156.723077 312.499411 157.365385 311.723847 158.007692 310.945032 158.650000 310.162952 159.292308 309.377591 159.934615 308.588936 160.576923 307.796972 161.219231 307.001684 161.861538 306.203059 162.503846 305.401081 163.146154 304.595736 163.788462 303.787010 164.430769 302.974888 165.073077 302.159356 165.715385 301.340399 166.357692 300.518003 167.000000 299.692154 167.642308 298.862837 168.284615 298.030037 168.926923 297.193740 169.569231 296.353932 170.211538 295.510599 170.853846 294.663725 171.496154 293.813296 172.138462 292.959298 172.780769 292.101717 173.423077 291.240537 174.065385 290.375760 174.707692 289.507442 175.350000 288.635656 175.992308 287.760475 176.634615 286.881970 177.276923 286.000214 177.919231 285.115278 178.561538 284.227236 179.203846 283.336160 179.846154 282.442121 180.488462 281.545193 181.130769 280.645446 181.773077 279.742954 182.415385 278.837789 183.057692 277.930023 183.700000 277.019728 184.342308 276.106977 184.984615 275.191841 185.626923 274.274394 186.269231 273.354707 186.911538 272.432852 187.553846 271.508902 188.196154 270.582929 188.838462 269.655005 189.480769 268.725203 190.123077 267.793594 190.765385 266.860251 191.407692 265.925247 192.050000 264.988653 192.692308 264.050542 193.334615 263.110986 193.976923 262.170058 194.619231 261.227828 195.261538 260.284371 195.903846 259.339757 196.546154 258.394060 197.188462 257.447351 197.830769 256.499703 198.473077 255.551188 199.115385 254.601879 199.757692 253.651847 200.400000 252.701164 201.042308 251.749904 201.684615 250.798137 202.326923 249.845938 202.969231 248.893377 203.611538 247.940527 204.253846 246.987460 204.896154 246.034249 205.538462 245.080965 206.180769 244.127682 206.823077 243.174471 207.465385 242.221404 208.107692 241.268554 208.750000 240.315993 209.392308 239.363793 210.034615 238.412027 210.676923 237.460767 211.319231 236.510084 211.961538 235.560052 212.603846 234.610742 213.246154 233.662227 213.888462 232.714579 214.530769 231.767871 215.173077 230.822173 215.815385 229.877560 216.457692 228.934102 217.100000 227.991873 217.742308 227.050944 218.384615 226.111388 219.026923 225.173277 219.669231 224.236684 220.311538 223.301679 220.953846 222.368337 221.596154 221.436728 222.238462 220.506926 222.880769 219.579002 223.523077 218.653029 224.165385 217.729079 224.807692 216.807224 225.450000 215.887537 226.092308 214.970089 226.734615 214.054954 227.376923 213.142202 228.019231 212.231907 228.661538 211.324141 229.303846 210.418976 229.946154 209.516484 230.588462 208.616738 231.230769 207.719809 231.873077 206.825771 232.515385 205.934694 233.157692 205.046652 233.800000 204.161717 234.442308 203.279961 235.084615 202.401456 235.726923 201.526275 236.369231 200.654489 237.011538 199.786171 237.653846 198.921394 238.296154 198.060229 238.938462 197.202748 239.580769 196.349025 240.223077 195.499131 240.865385 194.653138 241.507692 193.811120 242.150000 192.973147 242.792308 192.139292 243.434615 191.309628 244.076923 190.484227 244.719231 189.663160 245.361538 188.846501 246.003846 188.034321 246.646154 187.226693 247.288462 186.423690 247.930769 185.625382 248.573077 184.831843 249.215385 184.043144 249.857692 183.259359 250.500000 182.480558 251.142308 181.706816 251.784615 180.938202 252.426923 180.174791 253.069231 179.416655 253.711538 178.663864 254.353846 177.916493 254.996154 177.174612 255.638462 176.438294 256.280769 175.707613 256.923077 174.982638 257.565385 174.263444 258.207692 173.550102 258.850000 172.842685 259.492308 172.141264 260.134615 171.445912 260.776923 170.756701 261.419231 170.073704 262.061538 169.396993 262.703846 168.726640 263.346154 168.062716 263.988462 167.405296 264.630769 166.754450 265.273077 166.110251 265.915385 165.472771 266.557692 164.842083 267.200000 164.218258 267.842308 163.601370 268.484615 162.991489 269.126923 162.388690 269.769231 161.793042 270.411538 161.204620 271.053846 160.623495 271.696154 160.049740 272.338462 159.483426 272.980769 158.924626 273.623077 158.373413 274.265385 157.829858 274.907692 157.294034 275.550000 156.766012 276.192308 156.245866 276.834615 155.733667 277.476923 155.229488 278.119231 154.733402 278.761538 154.245479 279.403846 153.765793 280.046154 153.294415 280.688462 152.831418 281.330769 152.376875 281.973077 151.930857 282.615385 151.493437 283.257692 151.064687 283.900000 150.644679 284.542308 150.233485 285.184615 149.831179 285.826923 149.437831 286.469231 149.053514 287.111538 148.678301 287.753846 148.312264 288.396154 147.955474 289.038462 147.608005 289.680769 147.269929 290.323077 146.941317 290.965385 146.622242 291.607692 146.312776 292.250000 146.012991 292.892308 145.722961 293.534615 145.442756 294.176923 145.172450 294.819231 144.912114 295.461538 144.661820 296.103846 144.421642 296.746154 144.191651 297.388462 143.971920 298.030769 143.762520 298.673077 143.563524 299.315385 143.375004 299.957692 143.197033 300.600000 143.029682 301.242308 142.873025 301.884615 142.727132 302.526923 142.592077 303.169231 142.467932 303.811538 142.354769 304.453846 142.252660 305.096154 142.161678 305.738462 142.081894 306.380769 142.013381 307.023077 141.956211 307.665385 141.910457 308.307692 141.876191 308.950000 141.853484 309.592308 141.842410 310.234615 141.843040 310.876923 141.855447 311.519231 141.879703 312.161538 141.915880 312.803846 141.964050 313.446154 142.024287 314.088462 142.096661 314.730769 142.181245 315.373077 142.278112 316.015385 142.387334 316.657692 142.508982 317.300000 142.643130 317.942308 142.789849 318.584615 142.949212 319.226923 143.121291 319.869231 143.306158 320.511538 143.503886 321.153846 143.714546 321.796154 143.938211 322.438462 144.174953 323.080769 144.424845 323.723077 144.687959 324.365385 144.964366 325.007692 145.254140 325.650000 145.557352 326.292308 145.874075 326.934615 146.204381 327.576923 146.548342 328.219231 146.906031 328.861538 147.277519 329.503846 147.662879 330.146154 148.062183 330.788462 148.475504 331.430769 148.902914 332.073077 149.344484 332.715385 149.800288 333.357692 150.270397 334.000000 150.754884 334.642308 151.253790 335.284615 151.767033 335.926923 152.294501 336.569231 152.836080 337.211538 153.391659 337.853846 153.961124 338.496154 154.544363 339.138462 155.141263 339.780769 155.751711 340.423077 156.375595 341.065385 157.012801 341.707692 157.663218 342.350000 158.326732 342.992308 159.003230 343.634615 159.692601 344.276923 160.394731 344.919231 161.109508 345.561538 161.836819 346.203846 162.576550 346.846154 163.328591 347.488462 164.092827 348.130769 164.869146 348.773077 165.657435 349.415385 166.457582 350.057692 167.269474 350.700000 168.092998 351.342308 168.928042 351.984615 169.774493 352.626923 170.632237 353.269231 171.501163 353.911538 172.381158 354.553846 173.272108 355.196154 174.173902 355.838462 175.086426 356.480769 176.009568 357.123077 176.943216 357.765385 177.887255 358.407692 178.841575 359.050000 179.806061 359.692308 180.780602 360.334615 181.765084 360.976923 182.759395 361.619231 183.763422 362.261538 184.777053 362.903846 185.800174 363.546154 186.832673 364.188462 187.874438 364.830769 188.925355 365.473077 189.985313 366.115385 191.054197 366.757692 192.131896 367.400000 193.218296 368.042308 194.313286 368.684615 195.416752 369.326923 196.528582 369.969231 197.648662 370.611538 198.776881 371.253846 199.913125 371.896154 201.057282 372.538462 202.209240 373.180769 203.368884 373.823077 204.536103 374.465385 205.710784 375.107692 206.892815 375.750000 208.082082 376.392308 209.278472 377.034615 210.481874 377.676923 211.692175 378.319231 212.909261 378.961538 214.133020 379.603846 215.363339 380.246154 216.600106 380.888462 217.843207 381.530769 219.092531 382.173077 220.347964 382.815385 221.609394 383.457692 222.876708 384.100000 224.149794 384.742308 225.428538 385.384615 226.712827 386.026923 228.002550 386.669231 229.297594 387.311538 230.597845 387.953846 231.903191 388.596154 233.213520 389.238462 234.528718 389.880769 235.848674 390.523077 237.173273 391.165385 238.502404 391.807692 239.835954 392.450000 241.173809 393.092308 242.515859 393.734615 243.861988 394.376923 245.212086 395.019231 246.566039 395.661538 247.923735 396.303846 249.285060 396.946154 250.649903 397.588462 252.018150 398.230769 253.389688 398.873077 254.764406 399.515385 256.142190 400.157692 257.522927 400.800000 258.906506 401.442308 260.292812 402.084615 261.681734 402.726923 263.073159 403.369231 264.466973 404.011538 265.863065 404.653846 267.261322 405.296154 268.661630 405.938462 270.063878 406.580769 271.467952 407.223077 272.873740 407.865385 274.281129 408.507692 275.690006 409.150000 277.100259 409.792308 278.511775 410.434615 279.924441 411.076923 281.338145 411.719231 282.752773 412.361538 284.168214 413.003846 285.584354 413.646154 287.001080 414.288462 288.418281 414.930769 289.835842 415.573077 291.253653 416.215385 292.671599 416.857692 294.089568 417.500000 295.507448 418.142308 296.925125 418.784615 298.342487 419.426923 299.759422 420.069231 301.175816 420.711538 302.591557 421.353846 304.006532 421.996154 305.420629 422.638462 306.833734 423.280769 308.245736 423.923077 309.656520 424.565385 311.065976 425.207692 312.473989 425.850000 313.880447 426.492308 315.285238 427.134615 316.688249 427.776923 318.089366 428.419231 319.488479 429.061538 320.885472 429.703846 322.280235 430.346154 323.672654 430.988462 325.062616 431.630769 326.450009 432.273077 327.834720 432.915385 329.216637 433.557692 330.595646 434.200000 331.971635 434.842308 333.344492 435.484615 334.714103 436.126923 336.080356 436.769231 337.443138 437.411538 338.802336 438.053846 340.157838 438.696154 341.509531 439.338462 342.857302 439.980769 344.201039 440.623077 345.540629 441.265385 346.875959 441.907692 348.206917 442.550000 349.533389 443.192308 350.855263 443.834615 352.172426 444.476923 353.484766 445.119231 354.792170 445.761538 356.094525 446.403846 357.391719 447.046154 358.683638 447.688462 359.970171 448.330769 361.251204 448.973077 362.526624 449.615385 363.796319 450.257692 365.060177 450.900000 366.318084 451.542308 367.569928 452.184615 368.815596 452.826923 370.054975 453.469231 371.287953 454.111538 372.514417 454.753846 373.734255 455.396154 374.947352 456.038462 376.153598 456.680769 377.352879 457.323077 378.545082 457.965385 379.730095 458.607692 380.907805 459.250000 382.078099 459.892308 383.240865 460.534615 384.395989 461.176923 385.543360 461.819231 386.682864 462.461538 387.814389 463.103846 388.937822 463.746154 390.053050 464.388462 391.159961 465.030769 392.258442 465.673077 393.348380 466.315385 394.429662 466.957692 395.502176 467.600000 396.565810 468.242308 397.620449 468.884615 398.665982 469.526923 399.702297 470.169231 400.729279 470.811538 401.746817 471.453846 402.754798 472.096154 403.753108 472.738462 404.741637 473.380769 405.720270 474.023077 406.688894 474.665385 407.647398 475.307692 408.595669 475.950000 409.533593 476.592308 410.461059 477.234615 411.377953 477.876923 412.284163 478.519231 413.179575 479.161538 414.064078 479.803846 414.937559 480.446154 415.799904 481.088462 416.651002 481.730769 417.490739 482.373077 418.319003 483.015385 419.135680 483.657692 419.940660 484.300000 420.733827 484.942308 421.515071 485.584615 422.284278 486.226923 423.041335 486.869231 423.786130 487.511538 424.518550 488.153846 425.238483 488.796154 425.945815 489.438462 426.640434 490.080769 427.322227 490.723077 427.991082 491.365385 428.646885 492.007692 429.289525 492.650000 429.918888 493.292308 430.534862 493.934615 431.137333 494.576923 431.726190 495.219231 432.301348 495.861538 432.862833 496.503846 433.410700 497.146154 433.945004 497.788462 434.465801 498.430769 434.973145 499.073077 435.467091 499.715385 435.947693 500.357692 436.415008 501.000000 436.869089 501.642308 437.309992 502.284615 437.737771 502.926923 438.152482 503.569231 438.554180 504.211538 438.942918 504.853846 439.318753 505.496154 439.681739 506.138462 440.031931 506.780769 440.369384 507.423077 440.694152 508.065385 441.006292 508.707692 441.305857 509.350000 441.592902 509.992308 441.867483 510.634615 442.129655 511.276923 442.379471 511.919231 442.616988 512.561538 442.842260 513.203846 443.055342 513.846154 443.256289 514.488462 443.445156 515.130769 443.621998 515.773077 443.786869 516.415385 443.939825 517.057692 444.080920 517.700000 444.210210 518.342308 444.327749 518.984615 444.433592 519.626923 444.527794 520.269231 444.610410 520.911538 444.681496 521.553846 444.741105 522.196154 444.789293 522.838462 444.826114 523.480769 444.851624 524.123077 444.865878 524.765385 444.868930 525.407692 444.860835 526.050000 444.841649 526.692308 444.811425 527.334615 444.770220 527.976923 444.718088 528.619231 444.655083 529.261538 444.581261 529.903846 444.496677 530.546154 444.401386 531.188462 444.295442 531.830769 444.178900 532.473077 444.051816 533.115385 443.914244 533.757692 443.766239 534.400000 443.607856 535.042308 443.439150 535.684615 443.260176 536.326923 443.070989 536.969231 442.871643 537.611538 442.662194 538.253846 442.442697 538.896154 442.213206 539.538462 441.973776 540.180769 441.724462 540.823077 441.465320 541.465385 441.196403 542.107692 440.917768 542.750000 440.629469 543.392308 440.331560 544.034615 440.024097 544.676923 439.707134 545.319231 439.380727 545.961538 439.044931 546.603846 438.699800 547.246154 438.345389 547.888462 437.981753 548.530769 437.608947 549.173077 437.227026 549.815385 436.836046 550.457692 436.436059 551.100000 436.027123 551.742308 435.609291 552.384615 435.182619 553.026923 434.747161 553.669231 434.302973 554.311538 433.850108 554.953846 433.388623 555.596154 432.918572 556.238462 432.440010 556.880769 431.952992 557.523077 431.457573 558.165385 430.953807 558.807692 430.441750 559.450000 429.921457 560.092308 429.392981 560.734615 428.856380 561.376923 428.311706 562.019231 427.759016 562.661538 427.198364 563.303846 426.629804 563.946154 426.053393 564.588462 425.469185 565.230769 424.877234 565.873077 424.277596 566.515385 423.670325 567.157692 423.055477 567.800000 422.433106 568.442308 421.803267 569.084615 421.166016 569.726923 420.521406 570.369231 419.869494 571.011538 419.210334 571.653846 418.543980 572.296154 417.870488 572.938462 417.189913 573.580769 416.502309 574.223077 415.807732 574.865385 415.106236 575.507692 414.397876 576.150000 413.682708 576.792308 412.960785 577.434615 412.232164 578.076923 411.496898 578.719231 410.755044 579.361538 410.006655 580.003846 409.251787 580.646154 408.490494 581.288462 407.722832 581.930769 406.948855 582.573077 406.168618 583.215385 405.382177 583.857692 404.589585 584.500000 403.790899 585.142308 402.986173 585.784615 402.175461 586.426923 401.358819 587.069231 400.536302 587.711538 399.707965 588.353846 398.873861 588.996154 398.034048 589.638462 397.188578 590.280769 396.337508 590.923077 395.480892 591.565385 394.618785 592.207692 393.751241 592.850000 392.878317 593.492308 392.000066 594.134615 391.116544 594.776923 390.227806 595.419231 389.333906 596.061538 388.434899 596.703846 387.530841 597.346154 386.621786 597.988462 385.707789 598.630769 384.788905 599.273077 383.865189 599.915385 382.936696 600.557692 382.003481 601.200000 381.065598 601.842308 380.123103 602.484615 379.176050 603.126923 378.224495 603.769231 377.268492 604.411538 376.308097 605.053846 375.343363 605.696154 374.374346 606.338462 373.401102 606.980769 372.423684 607.623077 371.442148 608.265385 370.456549 608.907692 369.466941 609.550000 368.473380 610.192308 367.475920 610.834615 366.474616 611.476923 365.469524 612.119231 364.460698 612.761538 363.448193 613.403846 362.432063 614.046154 361.412365 614.688462 360.389152 615.330769 359.362481 615.973077 358.332404 616.615385 357.298978 617.257692 356.262258 617.900000 355.222298 618.542308 354.179153 619.184615 353.132878 619.826923 352.083529 620.469231 351.031159 621.111538 349.975824 621.753846 348.917579 622.396154 347.856479 623.038462 346.792578 623.680769 345.725932 624.323077 344.656595 624.965385 343.584623 625.607692 342.510069 626.250000 341.432990 626.892308 340.353440 627.534615 339.271474 628.176923 338.187147 628.819231 337.100514 629.461538 336.011629 630.103846 334.920548 630.746154 333.827325 631.388462 332.732016 632.030769 331.634675 632.673077 330.535358 633.315385 329.434118 633.957692 328.331012 634.600000 327.226094 635.242308 326.119418 635.884615 325.011040 636.526923 323.901015 637.169231 322.789398 637.811538 321.676243 638.453846 320.561606 639.096154 319.445541 639.738462 318.328103 640.380769 317.209347 641.023077 316.089329 641.665385 314.968102 642.307692 313.845722 642.950000 312.722244 643.592308 311.597723 644.234615 310.472214 644.876923 309.345771 645.519231 308.218449 646.161538 307.090304 646.803846 305.961390 647.446154 304.831762 648.088462 303.701475 648.730769 302.570585 649.373077 301.439145 650.015385 300.307211 650.657692 299.174838 651.300000 298.042080 651.942308 296.908993 652.584615 295.775631 653.226923 294.642050 653.869231 293.508304 654.511538 292.374448 655.153846 291.240537 655.153846 534.000000"></path></g><g class="series serie-1 color-1"><path class="line reactive" d="M12.846154 534.000000 L12.846154 10.269231 13.488462 10.489999 14.130769 10.710801 14.773077 10.931668 15.415385 11.152633 16.057692 11.373729 16.700000 11.594989 17.342308 11.816445 17.984615 12.038131 18.626923 12.260079 19.269231 12.482321 19.911538 12.704891 20.553846 12.927822 21.196154 13.151145 21.838462 13.374894 22.480769 13.599102 23.123077 13.823801 23.765385 14.049024 24.407692 14.274804 25.050000 14.501173 25.692308 14.728165 26.334615 14.955812 26.976923 15.184147 27.619231 15.413202 28.261538 15.643010 28.903846 15.873605 29.546154 16.105018 30.188462 16.337283 30.830769 16.570433 31.473077 16.804499 32.115385 17.039515 32.757692 17.275514 33.400000 17.512528 34.042308 17.750591 34.684615 17.989734 35.326923 18.229991 35.969231 18.471394 36.611538 18.713976 37.253846 18.957770 37.896154 19.202809 38.538462 19.449125 39.180769 19.696752 39.823077 19.945721 40.465385 20.196066 41.107692 20.447819 41.750000 20.701013 42.392308 20.955681 43.034615 21.211856 43.676923 21.469570 44.319231 21.728857 44.961538 21.989748 45.603846 22.252277 46.246154 22.516477 46.888462 22.782379 47.530769 23.050018 48.173077 23.319425 48.815385 23.590633 49.457692 23.863676 50.100000 24.138586 50.742308 24.415395 51.384615 24.694137 52.026923 24.974844 52.669231 25.257549 53.311538 25.542285 53.953846 25.829084 54.596154 26.117979 55.238462 26.409004 55.880769 26.702190 56.523077 26.997570 57.165385 27.295178 57.807692 27.595045 58.450000 27.897206 59.092308 28.201692 59.734615 28.508536 60.376923 28.817771 61.019231 29.129430 61.661538 29.443545 62.303846 29.760150 62.946154 30.079276 63.588462 30.400957 64.230769 30.725226 64.873077 31.052115 65.515385 31.381657 66.157692 31.713885 66.800000 32.048832 67.442308 32.386529 68.084615 32.727011 68.726923 33.070309 69.369231 33.416457 70.011538 33.765488 70.653846 34.117433 71.296154 34.472326 71.938462 34.830200 72.580769 35.191087 73.223077 35.555020 73.865385 35.922031 74.507692 36.292155 75.150000 36.665422 75.792308 37.041867 76.434615 37.421522 77.076923 37.804419 77.719231 38.190591 78.361538 38.580072 79.003846 38.972893 79.646154 39.369088 80.288462 39.768689 80.930769 40.171730 81.573077 40.578242 82.215385 40.988258 82.857692 41.401813 83.500000 41.818937 84.142308 42.239664 84.784615 42.664027 85.426923 43.092058 86.069231 43.523790 86.711538 43.959256 87.353846 44.398488 87.996154 44.841520 88.638462 45.288385 89.280769 45.739114 89.923077 46.193740 90.565385 46.652297 91.207692 47.114818 91.850000 47.581334 92.492308 48.051878 93.134615 48.526485 93.776923 49.005185 94.419231 49.488012 95.061538 49.974999 95.703846 50.466178 96.346154 50.961583 96.988462 51.461245 97.630769 51.965198 98.273077 52.473474 98.915385 52.986107 99.557692 53.503129 100.200000 54.024572 100.842308 54.550470 101.484615 55.080854 102.126923 55.615759 102.769231 56.155217 103.411538 56.699260 104.053846 57.247921 104.696154 57.801233 105.338462 58.359229 105.980769 58.921941 106.623077 59.489403 107.265385 60.061646 107.907692 60.638704 108.550000 61.220610 109.192308 61.807396 109.834615 62.399095 110.476923 62.995740 111.119231 63.597363 111.761538 64.203997 112.403846 64.815676 113.046154 65.432431 113.688462 66.054295 114.330769 66.681302 114.973077 67.313484 115.615385 67.950874 116.257692 68.593504 116.900000 69.241407 117.542308 69.894617 118.184615 70.553165 118.826923 71.217085 119.469231 71.886409 120.111538 72.561170 120.753846 73.241401 121.396154 73.927135 122.038462 74.618403 122.680769 75.315240 123.323077 76.017678 123.965385 76.725749 124.607692 77.439486 125.250000 78.158923 125.892308 78.884091 126.534615 79.615024 127.176923 80.351754 127.819231 81.094314 128.461538 81.842737 129.103846 82.597056 129.746154 83.357303 130.388462 84.123511 131.030769 84.895713 131.673077 85.673942 132.315385 86.458230 132.957692 87.248610 133.600000 88.045115 134.242308 88.847777 134.884615 89.656630 135.526923 90.471706 136.169231 91.293037 136.811538 92.120658 137.453846 92.954600 138.096154 93.794896 138.738462 94.641578 139.380769 95.494681 140.023077 96.354236 140.665385 97.220276 141.307692 98.092833 141.950000 98.971942 142.592308 99.857634 143.234615 100.749942 143.876923 101.648899 144.519231 102.554537 145.161538 103.466890 145.803846 104.385990 146.446154 105.311871 147.088462 106.244563 147.730769 107.184102 148.373077 108.130518 149.015385 109.083845 149.657692 110.044116 150.300000 111.011364 150.942308 111.985620 151.584615 112.966919 152.226923 113.955292 152.869231 114.950773 153.511538 115.953394 154.153846 116.963187 154.796154 117.980187 155.438462 119.004425 156.080769 120.035934 156.723077 121.074747 157.365385 122.120897 158.007692 123.174417 158.650000 124.235338 159.292308 125.303695 159.934615 126.379519 160.576923 127.462844 161.219231 128.553702 161.861538 129.652126 162.503846 130.758149 163.146154 131.871804 163.788462 132.993122 164.430769 134.122138 165.073077 135.258883 165.715385 136.403391 166.357692 137.555694 167.000000 138.715825 167.642308 139.883817 168.284615 141.059703 168.926923 142.243515 169.569231 143.435285 170.211538 144.635048 170.853846 145.842835 171.496154 147.058679 172.138462 148.282614 172.780769 149.514671 173.423077 150.754884 174.065385 152.003266 174.707692 153.259753 175.350000 154.524263 175.992308 155.796713 176.634615 157.077019 177.276923 158.365100 177.919231 159.660872 178.561538 160.964252 179.203846 162.275158 179.846154 163.593507 180.488462 164.919215 181.130769 166.252200 181.773077 167.592380 182.415385 168.939671 183.057692 170.293990 183.700000 171.655255 184.342308 173.023382 184.984615 174.398290 185.626923 175.779895 186.269231 177.168113 186.911538 178.562864 187.553846 179.964062 188.196154 181.371627 188.838462 182.785474 189.480769 184.205521 190.123077 185.631686 190.765385 187.063885 191.407692 188.502035 192.050000 189.946054 192.692308 191.395858 193.334615 192.851366 193.976923 194.312493 194.619231 195.779158 195.261538 197.251277 195.903846 198.728768 196.546154 200.211547 197.188462 201.699532 197.830769 203.192640 198.473077 204.690789 199.115385 206.193894 199.757692 207.701874 200.400000 209.214646 201.042308 210.732126 201.684615 212.254233 202.326923 213.780882 202.969231 215.311992 203.611538 216.847479 204.253846 218.387260 204.896154 219.931254 205.538462 221.479376 206.180769 223.031544 206.823077 224.587675 207.465385 226.147686 208.107692 227.711495 208.750000 229.279019 209.392308 230.850174 210.034615 232.424878 210.676923 234.003048 211.319231 235.584602 211.961538 237.169456 212.603846 238.757527 213.246154 240.348733 213.888462 241.942991 214.530769 243.540218 215.173077 245.140331 215.815385 246.743247 216.457692 248.348884 217.100000 249.957158 217.742308 251.567987 218.384615 253.181288 219.026923 254.796978 219.669231 256.414974 220.311538 258.035194 220.953846 259.657554 221.596154 261.281972 222.238462 262.908364 222.880769 264.536649 223.523077 266.166743 224.165385 267.798563 224.807692 269.432026 225.450000 271.067050 226.092308 272.703552 226.734615 274.341449 227.376923 275.980657 228.019231 277.621095 228.661538 279.262680 229.303846 280.905327 229.946154 282.548956 230.588462 284.193482 231.230769 285.838824 231.873077 287.484897 232.515385 289.131620 233.157692 290.778909 233.800000 292.426682 234.442308 294.074855 235.084615 295.723347 235.726923 297.372073 236.369231 299.020952 237.011538 300.669900 237.653846 302.318834 238.296154 303.967673 238.938462 305.616332 239.580769 307.264729 240.223077 308.912781 240.865385 310.560405 241.507692 312.207519 242.150000 313.854039 242.792308 315.499884 243.434615 317.144969 244.076923 318.789212 244.719231 320.432530 245.361538 322.074841 246.003846 323.716061 246.646154 325.356108 247.288462 326.994898 247.930769 328.632350 248.573077 330.268380 249.215385 331.902905 249.857692 333.535842 250.500000 335.167109 251.142308 336.796623 251.784615 338.424301 252.426923 340.050060 253.069231 341.673817 253.711538 343.295489 254.353846 344.914994 254.996154 346.532248 255.638462 348.147169 256.280769 349.759675 256.923077 351.369681 257.565385 352.977106 258.207692 354.581866 258.850000 356.183878 259.492308 357.783061 260.134615 359.379330 260.776923 360.972603 261.419231 362.562798 262.061538 364.149831 262.703846 365.733619 263.346154 367.314080 263.988462 368.891131 264.630769 370.464689 265.273077 372.034671 265.915385 373.600994 266.557692 375.163576 267.200000 376.722333 267.842308 378.277183 268.484615 379.828043 269.126923 381.374829 269.769231 382.917460 270.411538 384.455853 271.053846 385.989924 271.696154 387.519590 272.338462 389.044770 272.980769 390.565379 273.623077 392.081335 274.265385 393.592556 274.907692 395.098958 275.550000 396.600459 276.192308 398.096975 276.834615 399.588425 277.476923 401.074724 278.119231 402.555791 278.761538 404.031542 279.403846 405.501894 280.046154 406.966765 280.688462 408.426072 281.330769 409.879732 281.973077 411.327662 282.615385 412.769779 283.257692 414.206000 283.900000 415.636244 284.542308 417.060425 285.184615 418.478463 285.826923 419.890274 286.469231 421.295775 287.111538 422.694883 287.753846 424.087516 288.396154 425.473591 289.038462 426.853024 289.680769 428.225733 290.323077 429.591636 290.965385 430.950648 291.607692 432.302688 292.250000 433.647673 292.892308 434.985519 293.534615 436.316144 294.176923 437.639466 294.819231 438.955400 295.461538 440.263865 296.103846 441.564777 296.746154 442.858054 297.388462 444.143612 298.030769 445.421370 298.673077 446.691244 299.315385 447.953151 299.957692 449.207008 300.600000 450.452733 301.242308 451.690243 301.884615 452.919455 302.526923 454.140285 303.169231 455.352652 303.811538 456.556472 304.453846 457.751663 305.096154 458.938141 305.738462 460.115824 306.380769 461.284629 307.023077 462.444473 307.665385 463.595273 308.307692 464.736947 308.950000 465.869411 309.592308 466.992583 310.234615 468.106380 310.876923 469.210719 311.519231 470.305517 312.161538 471.390692 312.803846 472.466160 313.446154 473.531838 314.088462 474.587645 314.730769 475.633496 315.373077 476.669309 316.015385 477.695002 316.657692 478.710491 317.300000 479.715694 317.942308 480.710527 318.584615 481.694908 319.226923 482.668755 319.869231 483.631983 320.511538 484.584511 321.153846 485.526255 321.796154 486.457133 322.438462 487.377061 323.080769 488.285958 323.723077 489.183740 324.365385 490.070324 325.007692 490.945627 325.650000 491.809567 326.292308 492.662060 326.934615 493.503025 327.576923 494.332377 328.219231 495.150035 328.861538 495.955915 329.503846 496.749934 330.146154 497.532010 330.788462 498.302060 331.430769 499.060001 332.073077 499.805750 332.715385 500.539224 333.357692 501.260341 334.000000 501.969017 334.642308 502.665193 335.284615 503.348901 335.926923 504.020198 336.569231 504.679140 337.211538 505.325781 337.853846 505.960179 338.496154 506.582388 339.138462 507.192465 339.780769 507.790466 340.423077 508.376447 341.065385 508.950463 341.707692 509.512570 342.350000 510.062825 342.992308 510.601283 343.634615 511.127999 344.276923 511.643030 344.919231 512.146432 345.561538 512.638261 346.203846 513.118572 346.846154 513.587421 347.488462 514.044865 348.130769 514.490958 348.773077 514.925758 349.415385 515.349319 350.057692 515.761698 350.700000 516.162950 351.342308 516.553132 351.984615 516.932299 352.626923 517.300507 353.269231 517.657812 353.911538 518.004271 354.553846 518.339938 355.196154 518.664869 355.838462 518.979121 356.480769 519.282750 357.123077 519.575811 357.765385 519.858359 358.407692 520.130452 359.050000 520.392145 359.692308 520.643494 360.334615 520.884554 360.976923 521.115382 361.619231 521.336033 362.261538 521.546563 362.903846 521.747029 363.546154 521.937485 364.188462 522.117988 364.830769 522.288595 365.473077 522.449359 366.115385 522.600338 366.757692 522.741588 367.400000 522.873164 368.042308 522.995122 368.684615 523.107518 369.326923 523.210407 369.969231 523.303847 370.611538 523.387892 371.253846 523.462599 371.896154 523.528023 372.538462 523.584220 373.180769 523.631246 373.823077 523.669157 374.465385 523.698009 375.107692 523.717858 375.750000 523.728759 376.392308 523.730769 377.034615 523.723943 377.676923 523.708338 378.319231 523.684008 378.961538 523.651011 379.603846 523.609401 380.246154 523.559235 380.888462 523.500568 381.530769 523.433457 382.173077 523.357958 382.815385 523.274125 383.457692 523.182016 384.100000 523.081685 384.742308 522.973189 385.384615 522.856584 386.026923 522.731926 386.669231 522.599270 387.311538 522.458672 387.953846 522.310189 388.596154 522.153875 389.238462 521.989788 389.880769 521.817982 390.523077 521.638514 391.165385 521.451439 391.807692 521.256814 392.450000 521.054694 393.092308 520.845135 393.734615 520.628194 394.376923 520.403925 395.019231 520.172385 395.661538 519.933630 396.303846 519.687715 396.946154 519.434697 397.588462 519.174631 398.230769 518.907573 398.873077 518.633579 399.515385 518.352705 400.157692 518.065007 400.800000 517.770540 401.442308 517.469361 402.084615 517.161525 402.726923 516.847089 403.369231 516.526107 404.011538 516.198637 404.653846 515.864734 405.296154 515.524453 405.938462 515.177851 406.580769 514.824984 407.223077 514.465906 407.865385 514.100676 408.507692 513.729347 409.150000 513.351976 409.792308 512.968619 410.434615 512.579332 411.076923 512.184170 411.719231 511.783190 412.361538 511.376447 413.003846 510.963998 413.646154 510.545898 414.288462 510.122202 414.930769 509.692968 415.573077 509.258250 416.215385 508.818104 416.857692 508.372588 417.500000 507.921755 418.142308 507.465663 418.784615 507.004367 419.426923 506.537923 420.069231 506.066386 420.711538 505.589814 421.353846 505.108261 421.996154 504.621783 422.638462 504.130437 423.280769 503.634278 423.923077 503.133362 424.565385 502.627745 425.207692 502.117483 425.850000 501.602631 426.492308 501.083246 427.134615 500.559384 427.776923 500.031100 428.419231 499.498450 429.061538 498.961490 429.703846 498.420276 430.346154 497.874864 430.988462 497.325309 431.630769 496.771668 432.273077 496.213997 432.915385 495.652350 433.557692 495.086785 434.200000 494.517357 434.842308 493.944122 435.484615 493.367136 436.126923 492.786454 436.769231 492.202133 437.411538 491.614228 438.053846 491.022796 438.696154 490.427892 439.338462 489.829572 439.980769 489.227891 440.623077 488.622907 441.265385 488.014674 441.907692 487.403249 442.550000 486.788687 443.192308 486.171044 443.834615 485.550376 444.476923 484.926740 445.119231 484.300190 445.761538 483.670783 446.403846 483.038575 447.046154 482.403621 447.688462 481.765978 448.330769 481.125701 448.973077 480.482846 449.615385 479.837469 450.257692 479.189626 450.900000 478.539373 451.542308 477.886765 452.184615 477.231859 452.826923 476.574710 453.469231 475.915374 454.111538 475.253908 454.753846 474.590366 455.396154 473.924805 456.038462 473.257282 456.680769 472.587850 457.323077 471.916567 457.965385 471.243489 458.607692 470.568671 459.250000 469.892169 459.892308 469.214038 460.534615 468.534336 461.176923 467.853117 461.819231 467.170438 462.461538 466.486355 463.103846 465.800923 463.746154 465.114197 464.388462 464.426236 465.030769 463.737093 465.673077 463.046824 466.315385 462.355487 466.957692 461.663136 467.600000 460.969828 468.242308 460.275618 468.884615 459.580562 469.526923 458.884716 470.169231 458.188136 470.811538 457.490878 471.453846 456.792998 472.096154 456.094551 472.738462 455.395593 473.380769 454.696181 474.023077 453.996370 474.665385 453.296216 475.307692 452.595776 475.950000 451.895103 476.592308 451.194256 477.234615 450.493289 477.876923 449.792259 478.519231 449.091220 479.161538 448.390230 479.803846 447.689344 480.446154 446.988618 481.088462 446.288108 481.730769 445.587870 482.373077 444.887958 483.015385 444.188431 483.657692 443.489342 484.300000 442.790749 484.942308 442.092707 485.584615 441.395272 486.226923 440.698499 486.869231 440.002445 487.511538 439.307166 488.153846 438.612717 488.796154 437.919154 489.438462 437.226533 490.080769 436.534911 490.723077 435.844342 491.365385 435.154883 492.007692 434.466590 492.650000 433.779518 493.292308 433.093724 493.934615 432.409262 494.576923 431.726190 495.219231 431.044553 495.861538 430.364355 496.503846 429.685590 497.146154 429.008253 497.788462 428.332338 498.430769 427.657839 499.073077 426.984750 499.715385 426.313066 500.357692 425.642780 501.000000 424.973888 501.642308 424.306383 502.284615 423.640259 502.926923 422.975510 503.569231 422.312132 504.211538 421.650118 504.853846 420.989462 505.496154 420.330158 506.138462 419.672201 506.780769 419.015586 507.423077 418.360305 508.065385 417.706354 508.707692 417.053726 509.350000 416.402416 509.992308 415.752419 510.634615 415.103727 511.276923 414.456336 511.919231 413.810240 512.561538 413.165433 513.203846 412.521908 513.846154 411.879662 514.488462 411.238686 515.130769 410.598977 515.773077 409.960528 516.415385 409.323333 517.057692 408.687386 517.700000 408.052682 518.342308 407.419215 518.984615 406.786979 519.626923 406.155969 520.269231 405.526178 520.911538 404.897601 521.553846 404.270232 522.196154 403.644065 522.838462 403.019094 523.480769 402.395315 524.123077 401.772720 524.765385 401.151304 525.407692 400.531062 526.050000 399.911987 526.692308 399.294074 527.334615 398.677317 527.976923 398.061710 528.619231 397.447247 529.261538 396.833924 529.903846 396.221733 530.546154 395.610669 531.188462 395.000727 531.830769 394.391900 532.473077 393.784182 533.115385 393.177569 533.757692 392.572054 534.400000 391.967632 535.042308 391.364296 535.684615 390.762041 536.326923 390.160861 536.969231 389.560750 537.611538 388.961703 538.253846 388.363713 538.896154 387.766776 539.538462 387.170884 540.180769 386.576033 540.823077 385.982217 541.465385 385.389430 542.107692 384.797665 542.750000 384.206918 543.392308 383.617182 544.034615 383.028453 544.676923 382.440723 545.319231 381.853987 545.961538 381.268239 546.603846 380.683474 547.246154 380.099686 547.888462 379.516869 548.530769 378.935018 549.173077 378.354125 549.815385 377.774187 550.457692 377.195196 551.100000 376.617147 551.742308 376.040035 552.384615 375.463854 553.026923 374.888597 553.669231 374.314259 554.311538 373.740835 554.953846 373.168317 555.596154 372.596702 556.238462 372.025983 556.880769 371.456153 557.523077 370.887208 558.165385 370.319142 558.807692 369.751948 559.450000 369.185621 560.092308 368.620156 560.734615 368.055546 561.376923 367.491785 562.019231 366.928869 562.661538 366.366790 563.303846 365.805544 563.946154 365.245124 564.588462 364.685526 565.230769 364.126742 565.873077 363.568767 566.515385 363.011596 567.157692 362.455222 567.800000 361.899641 568.442308 361.344845 569.084615 360.790829 569.726923 360.237589 570.369231 359.685117 571.011538 359.133407 571.653846 358.582455 572.296154 358.032255 572.938462 357.482800 573.580769 356.934085 574.223077 356.386104 574.865385 355.838851 575.507692 355.292321 576.150000 354.746507 576.792308 354.201404 577.434615 353.657007 578.076923 353.113309 578.719231 352.570304 579.361538 352.027988 580.003846 351.486353 580.646154 350.945395 581.288462 350.405107 581.930769 349.865483 582.573077 349.326519 583.215385 348.788208 583.857692 348.250544 584.500000 347.713522 585.142308 347.177135 585.784615 346.641379 586.426923 346.106247 587.069231 345.571733 587.711538 345.037832 588.353846 344.504538 588.996154 343.971845 589.638462 343.439747 590.280769 342.908239 590.923077 342.377315 591.565385 341.846969 592.207692 341.317194 592.850000 340.787987 593.492308 340.259340 594.134615 339.731248 594.776923 339.203704 595.419231 338.676705 596.061538 338.150243 596.703846 337.624312 597.346154 337.098908 597.988462 336.574023 598.630769 336.049654 599.273077 335.525792 599.915385 335.002434 600.557692 334.479573 601.200000 333.957203 601.842308 333.435318 602.484615 332.913914 603.126923 332.392983 603.769231 331.872520 604.411538 331.352520 605.053846 330.832976 605.696154 330.313884 606.338462 329.795236 606.980769 329.277028 607.623077 328.759253 608.265385 328.241906 608.907692 327.724980 609.550000 327.208471 610.192308 326.692373 610.834615 326.176679 611.476923 325.661383 612.119231 325.146481 612.761538 324.631966 613.403846 324.117833 614.046154 323.604075 614.688462 323.090687 615.330769 322.577663 615.973077 322.064998 616.615385 321.552685 617.257692 321.040719 617.900000 320.529094 618.542308 320.017804 619.184615 319.506844 619.826923 318.996207 620.469231 318.485889 621.111538 317.975882 621.753846 317.466182 622.396154 316.956782 623.038462 316.447677 623.680769 315.938861 624.323077 315.430329 624.965385 314.922073 625.607692 314.414090 626.250000 313.906372 626.892308 313.398914 627.534615 312.891711 628.176923 312.384756 628.819231 311.878044 629.461538 311.371569 630.103846 310.865325 630.746154 310.359307 631.388462 309.853508 632.030769 309.347923 632.673077 308.842547 633.315385 308.337372 633.957692 307.832394 634.600000 307.327607 635.242308 306.823004 635.884615 306.318581 636.526923 305.814332 637.169231 305.310249 637.811538 304.806329 638.453846 304.302565 639.096154 303.798951 639.738462 303.295482 640.380769 302.792151 641.023077 302.288953 641.665385 301.785882 642.307692 301.282933 642.950000 300.780100 643.592308 300.277376 644.234615 299.774756 644.876923 299.272235 645.519231 298.769805 646.161538 298.267463 646.803846 297.765202 647.446154 297.263015 648.088462 296.760899 648.730769 296.258845 649.373077 295.756850 650.015385 295.254906 650.657692 294.753009 651.300000 294.251152 651.942308 293.749330 652.584615 293.247537 653.226923 292.745767 653.869231 292.244014 654.511538 291.742273 655.153846 291.240537 655.153846 534.000000"></path></g></g><g class="titles"><text class="title plot_title" x="400.0" y="26">Pygal - Python charting library</text></g><g class="plot overlay" transform="translate(112, 46)"><g class="series serie-0 color-0"><g class="dots"><circle class="dot reactive tooltip-trigger" cx="12.846153846153845" cy="431.72619027648943" r="2.5"></circle><desc class="value">1</desc><desc class="x top">12.846153846153845</desc><desc class="y top">431.72619027648943</desc></g><g class="dots"><circle class="dot reactive tooltip-trigger" cx="173.42307692307693" cy="291.24053710740316" r="2.5"></circle><desc class="value">2</desc><desc class="x top">173.42307692307693</desc><desc class="y top">291.24053710740316</desc></g><g class="dots"><circle class="dot reactive tooltip-trigger" cx="334.0" cy="150.75488393831694" r="2.5"></circle><desc class="value">3</desc><desc class="x ">334.0</desc><desc class="y ">150.75488393831694</desc></g><g class="dots"><circle class="dot reactive tooltip-trigger" cx="494.5769230769231" cy="431.72619027648943" r="2.5"></circle><desc class="value">1</desc><desc class="x left top">494.5769230769231</desc><desc class="y left top">431.72619027648943</desc></g><g class="dots"><circle class="dot reactive tooltip-trigger" cx="655.1538461538462" cy="291.24053710740316" r="2.5"></circle><desc class="value">2</desc><desc class="x left top">655.1538461538462</desc><desc class="y left top">291.24053710740316</desc></g></g><g class="series serie-1 color-1"><g class="dots"><circle class="dot reactive tooltip-trigger" cx="12.846153846153845" cy="10.269230769230717" r="2.5"></circle><desc class="value">4</desc><desc class="x ">12.846153846153845</desc><desc class="y ">10.269230769230717</desc></g><g class="dots"><circle class="dot reactive tooltip-trigger" cx="173.42307692307693" cy="150.75488393831694" r="2.5"></circle><desc class="value">3</desc><desc class="x ">173.42307692307693</desc><desc class="y ">150.75488393831694</desc></g><g class="dots"><circle class="dot reactive tooltip-trigger" cx="334.0" cy="501.96901686103257" r="2.5"></circle><desc class="value">0.5</desc><desc class="x top">334.0</desc><desc class="y top">501.96901686103257</desc></g><g class="dots"><circle class="dot reactive tooltip-trigger" cx="494.5769230769231" cy="431.72619027648943" r="2.5"></circle><desc class="value">1</desc><desc class="x left top">494.5769230769231</desc><desc class="y left top">431.72619027648943</desc></g><g class="dots"><circle class="dot reactive tooltip-trigger" cx="655.1538461538462" cy="291.24053710740316" r="2.5"></circle><desc class="value">2</desc><desc class="x left top">655.1538461538462</desc><desc class="y left top">291.24053710740316</desc></g></g></g><g class="plot text-overlay" transform="translate(112, 46)"><g class="series serie-0 color-0" style="display: none;"><text class="centered" x="20.846153846153847" y="442.3928569431561">1</text><text class="centered" x="181.42307692307693" y="301.90720377406984">2</text><text class="centered" x="342.0" y="161.4215506049836">3</text><text class="centered" x="502.5769230769231" y="442.3928569431561">1</text><text class="centered" x="663.1538461538462" y="301.90720377406984">2</text></g><g class="series serie-1 color-1" style="display: none;"><text class="centered" x="20.846153846153847" y="20.935897435897385">4</text><text class="centered" x="181.42307692307693" y="161.4215506049836">3</text><text class="centered" x="342.0" y="512.6356835276993">0.5</text><text class="centered" x="502.5769230769231" y="442.3928569431561">1</text><text class="centered" x="663.1538461538462" y="301.90720377406984">2</text></g></g><g class="plot tooltip-overlay" transform="translate(112, 46)"><g class="tooltip" style="opacity: 0" transform="translate(0 0)"><a><rect class="tooltip-box" height="0" rx="0" ry="0" width="0"></rect><text class="text"><tspan class="label"></tspan><tspan class="value"></tspan></text></a></g></g><g class="legends" transform="translate(10, 56)"><g class="legend reactive activate-serie" id="activate-serie-0"><rect class="color-0 reactive" height="12" width="12" x="0.0" y="1.0"></rect><text x="17.0" y="11.2">Pink</text></g><g class="legend reactive activate-serie" id="activate-serie-1"><rect class="color-1 reactive" height="12" width="12" x="0.0" y="22.0"></rect><text x="17.0" y="32.2">Green</text></g></g><g class="legends" transform="translate(790, 56)"></g></g></svg>
